# xmcd
#
# Track frame offsets: 
#        150
#        16197
#        32121
#        51460
#        70862
#        85114
#        100572
#        115375
#        139417
#        154469
#
# Disc length: 2267 seconds
#
# Revision: 0
# Processed by: cddbd v1.5.2PL0 Copyright (c) Steve Scherf et al.
# Submitted via: ExactAudioCopy v0.99pb3
#
DISCID=8508d90a
DTITLE=Augustana - Augustana
DYEAR=2011
DGENRE=Americana
TTITLE0=Steal Your Heart
TTITLE1=Wrong Side of Love
TTITLE2=On the Other Side
TTITLE3=Counting Stars
TTITLE4=Borrowed Time
TTITLE5=Shot in the Dark
TTITLE6=Someone's Baby Now
TTITLE7=Hurricane
TTITLE8=Just Stay Here Tonight
TTITLE9=You Were Made for Me
EXTD=
EXTT0=
EXTT1=
EXTT2=
EXTT3=
EXTT4=
EXTT5=
EXTT6=
EXTT7=
EXTT8=
EXTT9=
PLAYORDER=
